<?xml version="1.0" standalone="no"?>
<!DOCTYPE svg PUBLIC "-//W3C//DTD SVG 20010904//EN"
 "http://www.w3.org/TR/2001/REC-SVG-20010904/DTD/svg10.dtd">
<svg version="1.0" xmlns="http://www.w3.org/2000/svg"
 width="971.000000pt" height="971.000000pt" viewBox="0 0 971.000000 971.000000"
 preserveAspectRatio="xMidYMid meet">
<metadata>
Created by potrace 1.14, written by Peter Selinger 2001-2017
</metadata>
<g transform="translate(0.000000,971.000000) scale(0.100000,-0.100000)"
fill="#000000" stroke="none">
<path d="M4124 8365 c-3 -6 -10 -12 -17 -13 -7 0 -41 -3 -77 -5 -80 -5 -92 -8
-106 -26 -7 -9 -31 -15 -57 -16 -30 0 -54 -8 -69 -20 -13 -11 -36 -21 -53 -22
-48 -3 -66 -8 -75 -24 -5 -8 -17 -14 -27 -14 -30 -1 -61 -15 -67 -30 -3 -8
-17 -15 -31 -15 -14 0 -34 -9 -45 -20 -11 -11 -20 -17 -20 -14 0 4 -6 1 -13
-5 -8 -6 -17 -8 -20 -4 -4 3 -15 -3 -25 -15 -10 -11 -31 -23 -46 -26 -16 -3
-34 -13 -41 -23 -7 -10 -18 -19 -24 -19 -6 -1 -16 -2 -22 -3 -5 0 -7 -5 -4
-11 3 -5 1 -10 -5 -10 -6 0 -8 -5 -4 -12 4 -6 3 -8 -3 -5 -14 9 -74 -13 -67
-24 5 -8 -9 -13 -28 -10 -4 0 -9 -8 -13 -18 -5 -18 -59 -46 -78 -42 -5 1 -6
-3 -2 -8 7 -12 -29 -33 -40 -23 -5 4 -5 1 -1 -5 4 -7 2 -13 -4 -13 -6 0 -8 -4
-5 -10 3 -5 -1 -10 -9 -10 -9 0 -23 -11 -32 -25 -9 -14 -20 -23 -24 -20 -4 2
-12 -7 -19 -21 -6 -14 -16 -22 -22 -19 -6 4 -13 -2 -16 -14 -3 -11 -14 -23
-24 -26 -10 -4 -19 -13 -19 -21 0 -8 -5 -14 -10 -14 -6 0 -18 -13 -29 -30 -10
-16 -20 -28 -23 -25 -5 5 -21 -25 -32 -58 -3 -11 -11 -15 -17 -11 -8 4 -9 3
-5 -4 4 -7 2 -12 -4 -12 -6 0 -9 -4 -6 -8 3 -5 -6 -19 -20 -31 -14 -12 -22
-26 -19 -31 3 -6 2 -10 -4 -10 -6 0 -8 -6 -5 -14 3 -9 -3 -17 -15 -21 -12 -3
-19 -11 -16 -16 4 -5 1 -9 -5 -9 -6 0 -9 -4 -5 -9 3 -5 -2 -16 -10 -24 -8 -9
-15 -21 -15 -27 0 -6 -3 -9 -7 -7 -5 3 -9 -5 -9 -18 -1 -12 -10 -32 -20 -43
-10 -12 -19 -35 -20 -52 -1 -17 -11 -39 -21 -48 -10 -10 -19 -33 -20 -56 -1
-21 -10 -47 -19 -57 -10 -11 -19 -27 -19 -37 -8 -74 -12 -89 -27 -103 -10 -9
-18 -28 -18 -42 0 -17 -9 -32 -25 -43 -14 -9 -23 -19 -21 -22 3 -2 -6 -13 -19
-24 -14 -11 -22 -24 -19 -30 4 -7 2 -8 -5 -4 -6 4 -28 -2 -49 -15 -20 -12 -50
-23 -67 -25 -53 -6 -105 -21 -105 -32 0 -4 -24 -8 -53 -9 -67 -2 -86 -6 -117
-23 -27 -15 -39 -18 -83 -22 -16 -1 -35 -10 -41 -20 -7 -10 -16 -15 -19 -11
-4 3 -7 2 -7 -4 0 -6 -12 -9 -26 -7 -15 1 -28 -3 -31 -12 -3 -8 -11 -14 -19
-14 -8 0 -14 -5 -14 -12 0 -6 -3 -8 -6 -5 -4 3 -16 1 -28 -5 -11 -7 -24 -11
-28 -10 -4 1 -5 -5 -1 -14 3 -8 2 -14 -3 -12 -17 4 -54 -13 -49 -23 4 -5 -6
-14 -20 -21 -15 -7 -24 -17 -21 -25 3 -8 2 -12 -3 -8 -13 7 -42 -5 -36 -16 7
-11 -30 -30 -40 -21 -5 4 -5 1 -1 -5 4 -7 2 -13 -3 -13 -6 0 -11 -7 -11 -15 0
-8 -7 -15 -15 -15 -8 0 -15 -7 -15 -15 0 -8 -11 -22 -25 -31 -14 -9 -23 -20
-20 -24 3 -5 -4 -11 -15 -15 -18 -6 -24 -17 -21 -37 0 -5 -4 -8 -10 -8 -16 0
-41 -29 -34 -39 3 -5 -4 -12 -15 -16 -11 -4 -18 -11 -15 -16 4 -5 1 -9 -5 -9
-7 0 -10 -6 -7 -14 7 -17 -16 -39 -28 -28 -5 4 -5 1 -1 -5 4 -7 2 -13 -3 -13
-6 0 -11 -8 -11 -18 0 -10 -9 -24 -20 -32 -11 -8 -20 -22 -20 -32 0 -9 -10
-27 -23 -40 -12 -13 -21 -30 -19 -39 1 -8 -7 -28 -20 -44 -12 -16 -23 -40 -24
-53 0 -13 -5 -27 -11 -30 -13 -9 -33 -69 -33 -98 0 -13 -7 -27 -16 -32 -10 -6
-17 -27 -20 -62 -4 -65 -12 -92 -25 -84 -5 3 -9 2 -8 -3 1 -4 0 -10 -1 -13 -1
-3 -3 -30 -6 -60 -8 -113 -13 -143 -26 -151 -10 -6 -13 -55 -14 -206 -1 -177
0 -202 17 -231 11 -18 13 -30 7 -26 -10 6 -10 5 -1 -7 6 -8 12 -32 12 -54 -1
-60 10 -109 27 -121 8 -6 16 -30 18 -52 2 -22 11 -48 20 -57 9 -9 17 -23 17
-31 3 -30 4 -34 21 -54 10 -11 20 -31 22 -45 3 -13 7 -29 10 -33 7 -12 -29
-44 -38 -35 -4 5 -7 3 -6 -2 5 -23 -1 -34 -14 -29 -8 3 -17 0 -22 -7 -5 -8 -3
-10 7 -4 8 4 5 -1 -6 -12 -11 -10 -28 -22 -38 -26 -10 -4 -16 -11 -12 -17 3
-5 -6 -12 -20 -16 -13 -3 -23 -10 -20 -14 7 -11 -30 -41 -40 -33 -4 5 -5 0 -2
-9 4 -10 3 -18 -2 -18 -17 0 -53 -39 -45 -51 4 -8 3 -9 -4 -5 -6 4 -19 -3 -29
-15 -10 -12 -23 -26 -28 -33 -16 -17 -59 -78 -71 -101 -6 -11 -16 -19 -22 -18
-10 3 -17 -16 -13 -39 0 -4 -6 -5 -14 -2 -9 4 -15 0 -15 -8 0 -9 -11 -27 -25
-42 -14 -15 -27 -33 -28 -39 -1 -6 -12 -20 -25 -30 -12 -10 -22 -25 -22 -33 0
-8 -6 -14 -13 -14 -8 0 -19 -12 -25 -26 -7 -14 -17 -22 -22 -19 -6 3 -10 0
-10 -8 0 -8 -10 -25 -23 -39 -13 -14 -21 -30 -19 -36 2 -7 -2 -12 -8 -12 -7 0
-10 -6 -7 -14 4 -10 0 -13 -14 -11 -13 3 -19 0 -16 -8 2 -7 -8 -23 -22 -37
-15 -14 -26 -32 -26 -40 0 -8 -10 -25 -22 -37 -13 -12 -23 -29 -23 -38 0 -9
-4 -14 -9 -11 -8 6 -23 -16 -26 -39 -4 -22 -18 -45 -25 -40 -5 3 -14 -11 -20
-30 -6 -19 -19 -39 -28 -45 -9 -5 -13 -10 -8 -10 5 0 3 -7 -4 -15 -6 -8 -9
-19 -5 -25 6 -9 -8 -15 -29 -11 -5 1 -6 -5 -3 -12 3 -8 0 -20 -6 -26 -6 -6 -8
-11 -4 -11 4 0 3 -9 -3 -20 -6 -11 -15 -18 -21 -15 -5 4 -9 3 -8 -2 1 -4 0
-10 -1 -13 -1 -3 -4 -18 -6 -33 -3 -15 -12 -37 -22 -48 -9 -11 -18 -34 -19
-52 0 -18 -2 -38 -2 -46 -1 -8 -7 -11 -17 -7 -8 3 -12 2 -9 -4 3 -6 2 -10 -2
-10 -5 0 -9 -23 -9 -50 1 -28 -3 -50 -8 -50 -5 0 -6 -3 -3 -7 4 -3 1 -13 -5
-21 -10 -11 -13 -177 -13 -706 l0 -692 1435 1 c834 0 1441 4 1449 9 19 12 65
17 203 19 66 1 114 6 110 11 -3 5 5 7 16 4 12 -4 20 -2 17 2 -9 14 36 23 130
25 52 1 101 8 115 15 14 7 27 12 28 11 2 -2 7 1 10 5 4 4 0 4 -8 -1 -8 -5 -12
-4 -7 0 4 5 47 10 95 12 111 4 110 4 116 20 3 8 10 11 16 8 5 -3 10 -2 10 2 0
5 24 8 53 8 28 -1 57 1 62 5 6 3 17 6 25 6 8 -1 22 6 32 16 11 11 30 15 62 13
25 -1 46 1 46 5 0 4 11 6 25 5 14 -2 29 3 33 11 7 13 36 19 120 28 12 1 32 10
43 20 12 10 42 19 67 21 26 2 53 4 60 4 6 1 12 7 12 14 0 8 6 14 13 15 6 1 30
4 52 7 22 3 45 6 52 7 7 1 10 5 7 10 -3 4 2 8 10 8 9 0 16 4 16 8 0 5 16 8 35
7 19 -1 35 3 35 8 0 6 3 7 7 4 3 -4 14 0 24 9 10 9 34 17 53 19 19 1 47 10 62
20 15 9 41 19 58 21 51 6 65 10 73 19 4 4 1 5 -7 1 -8 -4 -7 -1 3 7 10 8 29
14 43 12 13 -1 24 2 24 7 0 5 5 6 10 3 6 -4 26 3 45 15 18 11 49 23 67 24 42
5 65 14 71 29 3 8 23 12 51 11 25 -1 46 3 46 7 0 5 7 9 15 9 8 0 15 6 15 13 0
8 18 13 51 14 38 1 54 6 65 21 9 14 22 18 44 16 16 -2 30 1 30 6 0 6 3 9 8 7
4 -1 18 8 31 20 21 20 24 32 26 107 1 54 7 91 15 101 7 9 15 45 16 80 2 61 1
64 -24 73 -15 5 -43 7 -62 5 -84 -9 -95 -11 -100 -13 -3 -1 -8 -2 -12 -1 -5 0
-8 -5 -8 -12 0 -7 -15 -13 -38 -14 -90 -5 -132 -12 -167 -29 -21 -10 -65 -18
-103 -19 -79 -3 -90 -5 -113 -24 -12 -10 -50 -16 -111 -18 -113 -4 -127 -6
-123 -13 9 -16 -30 -25 -110 -26 -125 -3 -158 -7 -171 -23 -7 -9 -43 -15 -115
-17 -148 -6 -165 -9 -184 -24 -11 -9 -51 -14 -123 -16 -59 -2 -107 -4 -107 -5
0 -1 -22 -3 -50 -5 -86 -7 -90 -8 -97 -18 -4 -6 -49 -12 -100 -13 -51 -2 -165
-5 -253 -8 -266 -9 -505 -12 -505 -6 0 3 -62 7 -138 7 -200 3 -317 10 -315 21
1 5 -6 10 -15 11 -9 1 -33 4 -52 7 -19 3 -62 6 -95 8 -37 1 -70 9 -87 20 -17
12 -49 19 -93 21 -51 2 -71 6 -81 20 -9 13 -27 18 -63 19 -28 1 -51 5 -51 9 0
4 -10 13 -22 19 -20 11 -37 14 -95 18 -7 1 -13 8 -13 16 0 8 -6 15 -12 16 -7
0 -22 3 -33 5 -11 2 -28 5 -37 6 -10 1 -18 8 -18 16 0 7 -5 10 -10 7 -6 -3
-10 -2 -10 3 0 5 -6 9 -12 10 -30 2 -48 9 -65 24 -10 9 -27 18 -38 20 -11 1
-30 13 -42 26 -12 13 -24 23 -27 23 -23 -3 -36 0 -32 7 7 12 -25 29 -50 27
-13 -1 -21 4 -20 13 1 8 -8 19 -19 26 -11 6 -26 19 -33 29 -7 9 -18 15 -23 12
-5 -4 -9 -1 -9 5 0 7 -20 31 -45 56 -25 24 -45 48 -45 54 0 5 -8 10 -19 10
-14 0 -18 6 -15 26 1 16 -6 34 -19 47 -13 13 -22 36 -23 57 -1 19 -3 35 -4 35
-1 0 -3 9 -5 20 -2 11 -10 24 -17 30 -11 8 -14 52 -13 200 0 173 2 190 18 193
9 2 15 8 11 13 -3 6 0 17 8 26 11 14 11 16 -2 8 -12 -7 -13 -6 -4 6 6 8 11 26
10 42 -1 17 4 29 15 32 17 6 34 60 23 76 -3 5 2 9 11 9 13 0 36 36 39 62 1 4
10 14 21 22 11 9 16 16 12 16 -4 0 -3 9 3 20 6 12 16 18 23 14 7 -4 9 -4 5 1
-4 4 -3 14 4 22 6 7 8 16 5 19 -3 3 6 19 21 34 33 34 57 63 58 70 10 36 19 50
33 48 10 -2 15 3 13 15 -2 10 7 21 23 29 17 8 24 17 20 28 -11 35 45 13 87
-34 23 -25 48 -46 55 -46 7 0 13 -7 13 -15 0 -8 5 -15 11 -15 7 0 22 -12 35
-28 13 -15 24 -23 24 -18 0 5 7 3 15 -4 8 -7 12 -17 8 -23 -3 -6 -1 -7 5 -3 7
4 12 2 12 -4 0 -6 3 -9 8 -7 14 9 52 -12 52 -28 0 -9 3 -14 8 -12 14 9 53 -13
46 -24 -4 -7 -3 -9 4 -5 6 3 13 2 17 -4 3 -5 13 -10 22 -10 9 0 25 -8 35 -17
10 -9 28 -18 40 -20 11 -2 34 -13 50 -25 17 -11 42 -22 57 -23 47 -3 52 -5 47
-14 -6 -9 27 -21 78 -27 16 -2 37 -10 45 -18 9 -8 40 -17 70 -20 30 -3 62 -13
71 -21 10 -9 43 -17 79 -20 35 -2 77 -11 94 -20 17 -8 70 -18 120 -21 129 -7
170 -13 176 -21 7 -10 28 -11 236 -16 174 -3 192 0 227 35 24 24 30 51 32 138
1 48 6 69 19 81 10 10 17 21 16 25 -1 5 0 11 1 14 1 3 3 37 5 75 4 99 4 97 18
89 6 -4 9 -4 5 1 -4 4 -1 22 6 39 13 30 15 114 3 133 -7 11 -305 9 -452 -3
-124 -9 -298 -13 -309 -6 -11 6 -74 11 -178 15 -48 1 -68 6 -68 15 0 7 -4 10
-10 7 -5 -3 -10 -2 -10 3 0 5 -6 9 -12 10 -7 1 -26 3 -43 5 -16 2 -48 14 -70
25 -23 12 -53 23 -68 24 -15 1 -27 8 -27 15 0 14 -1 14 -39 18 -14 1 -32 11
-41 21 -16 19 -32 26 -60 27 -8 0 -21 8 -27 17 -7 10 -28 21 -48 24 -20 4 -33
11 -31 15 6 10 -42 33 -53 26 -5 -2 -13 7 -20 21 -9 20 -8 28 4 40 8 8 18 16
22 17 4 1 7 7 7 14 -1 6 4 9 11 7 7 -3 19 1 26 8 8 7 31 26 52 41 21 16 34 33
31 39 -4 6 -2 8 4 4 6 -3 22 6 36 21 14 15 26 24 26 19 0 -5 9 3 21 18 11 14
27 26 35 26 8 0 14 4 14 8 0 5 16 17 35 28 19 10 38 27 41 36 3 10 10 16 15
13 5 -4 9 -1 9 5 0 6 4 9 9 6 5 -3 11 4 14 15 3 12 10 18 16 14 6 -3 22 5 36
19 14 14 29 26 33 26 4 0 15 6 24 14 9 8 26 20 37 26 12 6 19 15 16 21 -4 5 3
9 13 9 11 0 25 7 32 15 7 8 16 13 20 10 4 -3 10 2 14 10 3 8 11 15 18 15 7 0
19 9 26 20 7 12 16 18 21 15 5 -2 15 2 22 11 7 8 26 22 43 31 17 8 39 23 49
31 10 9 26 17 35 18 9 2 18 8 20 14 2 5 9 7 15 3 6 -4 8 0 4 10 -4 11 -2 14 7
11 7 -3 20 2 29 10 8 8 17 12 21 9 3 -4 6 1 6 9 0 9 6 16 13 15 29 -1 48 4 44
11 -3 4 0 12 7 17 12 10 20 13 56 18 11 2 23 7 27 12 5 4 1 4 -7 0 -13 -8 -13
-7 -1 9 8 9 20 15 28 12 7 -3 13 -1 13 5 0 6 4 8 9 4 6 -3 18 3 28 14 10 11
35 22 55 26 21 4 35 11 32 16 -6 10 37 29 49 22 10 -6 48 27 42 37 -3 4 9 6
26 5 22 -2 37 4 51 20 11 13 28 22 39 20 10 -2 21 1 24 6 4 5 11 7 16 4 5 -4
9 1 9 9 0 9 6 17 13 17 6 1 23 3 36 4 14 1 30 10 37 19 6 9 20 18 30 20 34 7
74 25 74 34 0 5 6 9 13 10 30 2 47 9 66 26 10 10 30 19 43 21 41 5 53 10 59
25 3 8 19 15 37 15 18 0 40 9 51 22 12 13 29 19 45 18 14 -2 26 1 26 6 0 6 4
8 9 4 5 -3 12 -1 16 5 4 6 11 7 17 4 7 -4 8 -2 4 4 -4 7 -2 13 3 13 6 1 14 2
19 3 4 1 24 5 44 9 21 4 37 13 35 18 -1 6 15 13 36 15 30 4 50 16 84 50 27 28
42 51 39 60 -3 8 1 17 8 20 8 3 19 19 25 36 9 25 7 33 -13 55 -14 14 -22 31
-20 38 3 7 -2 15 -11 19 -9 3 -14 10 -11 15 6 8 -40 26 -57 22 -5 -1 -6 3 -2
9 3 5 -5 15 -19 22 -22 9 -29 8 -45 -6 -11 -10 -31 -19 -45 -20 -14 0 -26 -5
-26 -9 0 -5 -5 -5 -11 -2 -5 4 -18 -1 -27 -12 -18 -19 -27 -22 -76 -29 -17 -2
-34 -10 -39 -19 -4 -8 -12 -13 -18 -10 -5 4 -9 2 -9 -4 0 -5 -11 -8 -24 -5
-14 2 -34 -4 -50 -17 -14 -11 -39 -22 -55 -23 -16 -1 -36 -7 -43 -14 -8 -6
-18 -9 -21 -5 -4 3 -7 0 -7 -8 0 -10 -13 -15 -41 -16 -23 0 -44 -5 -48 -11
-10 -15 -51 -33 -61 -27 -6 3 -10 2 -10 -4 0 -5 -9 -8 -20 -6 -12 2 -23 -2
-27 -11 -3 -8 -23 -17 -45 -20 -22 -4 -45 -13 -52 -20 -8 -7 -16 -10 -20 -7
-3 4 -6 1 -6 -6 0 -7 -4 -9 -10 -6 -5 3 -10 2 -10 -4 0 -5 -9 -8 -19 -6 -10 2
-27 -4 -38 -13 -20 -18 -35 -23 -67 -26 -11 0 -30 -11 -42 -23 -13 -13 -31
-21 -43 -18 -13 2 -26 -4 -36 -18 -8 -12 -15 -18 -15 -13 0 5 -6 3 -14 -3 -8
-6 -18 -11 -22 -10 -20 3 -35 -2 -30 -10 6 -9 -42 -34 -53 -27 -4 3 -13 -4
-21 -14 -8 -10 -17 -17 -22 -14 -4 3 -8 0 -8 -6 0 -6 -4 -8 -10 -5 -5 3 -10 2
-10 -4 0 -6 -7 -8 -16 -4 -10 4 -17 -1 -21 -16 -3 -11 -8 -19 -12 -17 -12 8
-71 -23 -71 -38 0 -8 -8 -13 -17 -12 -23 4 -64 -14 -57 -25 3 -5 -8 -12 -23
-15 -15 -4 -34 -16 -41 -26 -7 -10 -17 -16 -22 -13 -5 3 -11 1 -15 -5 -4 -6
-10 -8 -15 -5 -5 3 -13 -3 -19 -13 -5 -9 -19 -18 -30 -19 -12 -1 -28 -9 -37
-18 -9 -8 -30 -22 -47 -31 -60 -28 -92 -47 -99 -58 -5 -6 -8 -7 -8 -1 0 6 -4
4 -8 -2 -4 -7 -18 -14 -31 -16 -13 -2 -29 -11 -36 -20 -7 -9 -22 -18 -34 -20
-12 -2 -31 -11 -42 -21 -11 -9 -33 -19 -50 -23 -16 -3 -34 -14 -40 -25 -5 -10
-14 -16 -19 -13 -11 7 -47 -11 -68 -32 -7 -7 -20 -13 -28 -13 -28 0 -53 -17
-51 -35 1 -5 -8 -10 -20 -11 -13 -1 -26 -3 -30 -4 -5 -1 -12 -2 -16 -1 -5 1
-6 -3 -3 -8 8 -12 -13 -26 -39 -26 -11 0 -20 -6 -20 -13 0 -15 -60 -44 -69
-35 -3 4 -6 -3 -6 -15 0 -12 -3 -21 -7 -21 -26 4 -41 -4 -46 -23 -4 -12 -9
-19 -13 -15 -4 3 -15 2 -24 -3 -15 -8 -20 -4 -29 20 -5 17 -8 30 -5 30 3 0 -2
7 -10 16 -9 8 -16 27 -17 42 -1 15 -2 56 -3 92 -3 78 -7 91 -26 106 -21 17
-19 366 2 406 8 15 17 26 19 24 2 -2 5 25 6 60 1 43 8 74 20 92 10 15 20 40
22 57 2 16 12 42 22 56 10 15 19 33 19 41 0 8 9 24 20 36 12 12 18 22 15 22
-3 0 1 14 10 30 9 17 19 30 23 30 4 0 16 18 26 40 10 22 23 37 29 33 6 -3 7
-1 3 5 -7 12 101 129 115 125 4 -2 10 6 14 16 5 17 38 35 58 32 5 -1 6 2 4 6
-6 10 19 34 27 26 3 -4 15 5 27 18 11 13 29 24 39 24 10 0 27 9 39 19 12 11
33 20 48 22 16 1 33 2 40 3 6 1 19 9 29 19 15 15 41 17 208 18 123 0 196 -3
205 -10 12 -9 13 -8 7 4 -6 12 -5 12 6 -1 16 -18 42 -29 87 -35 40 -5 53 -12
46 -25 -4 -5 0 -9 7 -9 33 0 88 -22 82 -32 -4 -6 -3 -8 4 -4 6 3 13 2 17 -4 4
-6 10 -8 15 -5 5 3 11 1 15 -5 4 -6 10 -8 15 -5 5 3 12 -4 15 -16 4 -12 12
-18 21 -15 8 3 24 -4 37 -17 12 -12 25 -22 29 -22 4 0 16 -8 27 -17 11 -9 30
-22 43 -29 13 -6 27 -18 31 -25 4 -8 14 -14 21 -14 7 0 19 -11 26 -25 7 -13
16 -22 20 -20 4 2 16 -6 27 -18 65 -71 99 -79 145 -34 19 18 33 38 30 45 -2 8
2 10 13 6 11 -5 18 0 22 14 3 12 13 24 24 27 10 3 21 15 24 26 4 10 13 19 21
19 8 0 14 4 14 10 0 5 10 19 23 32 12 13 28 35 34 51 7 15 17 27 22 27 5 0 11
10 13 23 2 12 8 21 14 20 6 -1 11 3 12 10 1 7 5 29 8 51 5 26 3 37 -4 32 -12
-7 -32 24 -32 50 0 10 -9 27 -19 38 -18 19 -28 52 -30 99 -1 10 -5 16 -10 13
-5 -3 -15 2 -22 11 -12 14 -12 16 1 8 12 -7 13 -6 3 7 -7 8 -10 17 -7 20 9 10
-16 89 -26 83 -6 -4 -10 -3 -11 2 0 4 -2 35 -4 68 -5 73 -11 100 -28 140 -10
21 -13 66 -12 150 3 147 3 147 13 141 5 -3 9 0 10 7 0 7 3 23 6 37 4 14 8 47
11 73 2 30 11 55 22 65 10 10 18 24 18 32 -1 8 6 24 14 34 14 17 14 18 1 11
-8 -4 -5 2 8 14 12 12 22 30 22 40 0 10 9 21 20 24 11 3 20 9 18 14 -4 16 13
51 27 57 8 3 15 10 15 16 0 11 70 80 82 80 4 0 7 6 5 12 -1 7 8 14 21 16 12 2
27 12 33 23 5 11 14 17 20 14 5 -4 9 -1 9 6 0 7 3 9 6 6 4 -4 15 3 25 14 10
11 24 22 31 23 27 6 57 21 60 31 2 6 12 10 23 11 39 2 44 4 49 22 4 12 17 18
38 19 46 2 63 7 83 23 10 8 43 16 74 18 31 2 68 4 84 5 15 1 27 5 27 8 0 16
65 23 207 24 127 1 156 -1 170 -14 10 -9 34 -17 53 -18 119 -7 140 -11 155
-23 9 -8 24 -16 34 -18 25 -5 54 -9 74 -11 9 0 17 -7 17 -14 0 -14 2 -15 60
-20 23 -2 36 -9 38 -20 2 -9 10 -18 18 -18 8 -1 19 -3 24 -4 6 -1 16 -3 24 -4
7 0 16 -10 19 -22 3 -12 10 -18 15 -15 6 3 24 -5 40 -19 16 -14 37 -25 46 -25
9 0 20 -9 24 -21 5 -11 10 -20 12 -19 11 3 39 -13 35 -20 -5 -8 24 -25 38 -22
4 1 7 -5 7 -13 0 -8 9 -19 20 -25 11 -6 20 -18 20 -27 0 -9 3 -14 6 -11 8 9
85 -73 78 -83 -3 -5 5 -9 16 -9 16 0 20 -5 16 -15 -3 -8 -1 -15 5 -15 6 0 7
-4 4 -10 -3 -5 -1 -10 4 -10 6 0 11 -7 11 -16 0 -8 5 -12 10 -9 6 3 10 -1 10
-11 0 -9 10 -25 22 -35 12 -11 23 -31 24 -45 2 -14 10 -31 19 -37 8 -7 16 -27
18 -44 1 -18 5 -33 10 -33 4 0 7 -9 7 -19 0 -11 5 -21 10 -23 6 -2 13 -23 16
-48 8 -73 12 -87 27 -112 12 -19 15 -82 15 -363 0 -200 -4 -348 -10 -358 -13
-25 -18 -56 -24 -141 -2 -39 -5 -75 -5 -81 -1 -5 0 -40 1 -77 2 -49 7 -68 16
-68 8 0 14 -4 14 -8 0 -4 9 -8 19 -9 11 -1 29 -11 40 -22 11 -11 30 -18 45
-17 16 2 26 -2 26 -10 0 -12 17 -21 60 -29 12 -2 29 -12 38 -22 10 -10 24 -18
32 -18 18 2 50 -13 67 -31 13 -13 50 -11 64 3 4 5 11 23 14 42 3 18 12 40 20
48 17 16 16 15 20 59 3 37 13 56 26 48 5 -3 9 -2 8 3 -1 4 0 13 1 18 2 6 4 19
5 30 2 29 23 75 33 75 5 0 9 10 8 23 -2 25 13 67 25 67 8 0 19 43 22 87 1 13
10 24 23 27 35 9 158 -5 166 -19 4 -7 25 -16 45 -20 21 -3 49 -16 62 -28 13
-12 21 -17 18 -11 -4 7 8 5 28 -4 19 -9 31 -20 28 -26 -3 -6 -3 -8 1 -4 4 3
19 0 33 -7 15 -8 30 -12 35 -9 5 3 8 2 7 -3 -4 -21 2 -33 15 -33 8 0 21 -9 29
-20 8 -11 16 -17 19 -15 3 3 21 -10 41 -29 20 -19 38 -32 41 -28 3 3 6 -2 6
-11 0 -9 8 -22 18 -29 9 -7 25 -25 34 -39 9 -14 24 -34 33 -43 9 -9 13 -16 9
-16 -4 0 5 -10 20 -21 15 -12 25 -24 22 -27 -3 -2 4 -18 15 -34 12 -16 22 -36
23 -44 1 -8 10 -24 19 -34 9 -11 18 -30 19 -42 2 -13 7 -29 11 -35 5 -7 5 -13
1 -13 -4 0 1 -6 12 -14 12 -9 19 -27 20 -48 1 -43 14 -91 27 -99 22 -15 27
-626 5 -612 -5 2 -8 -3 -8 -11 0 -9 -4 -16 -8 -16 -4 0 -8 -8 -9 -17 -9 -102
-12 -118 -27 -128 -8 -7 -13 -15 -9 -18 3 -4 2 -7 -4 -7 -5 0 -9 -14 -8 -31 1
-17 -6 -41 -17 -55 -19 -23 -26 -41 -27 -73 -1 -8 -4 -11 -8 -8 -8 9 -35 -42
-28 -54 3 -4 -6 -16 -20 -25 -14 -9 -25 -20 -25 -25 0 -11 -41 -59 -95 -111
-62 -60 -71 -68 -79 -68 -11 0 -36 -27 -36 -40 0 -6 -5 -8 -10 -5 -6 4 -17 1
-25 -5 -8 -7 -15 -9 -15 -4 0 4 -6 0 -12 -9 -7 -10 -24 -19 -37 -22 -12 -2
-29 -9 -35 -15 -7 -5 -17 -6 -21 -2 -5 4 -5 1 -1 -5 8 -14 6 -14 -39 -18 -44
-3 -59 -8 -71 -24 -7 -8 -35 -15 -70 -17 -84 -5 -137 -14 -153 -28 -10 -8
-125 -11 -395 -12 -438 -2 -402 0 -404 -16 -1 -20 -9 -50 -22 -83 -23 -59 -33
-346 -13 -366 6 -6 43 -13 82 -15 40 -3 84 -10 99 -16 15 -6 36 -13 47 -15 45
-8 643 -8 680 0 22 5 46 10 53 10 6 0 12 4 12 9 0 4 3 7 8 7 4 -1 9 0 12 1 3
1 32 3 66 5 64 3 105 12 114 26 3 5 27 11 53 13 25 3 58 13 72 22 14 9 36 18
48 20 49 7 59 11 67 24 8 13 22 18 63 22 10 1 23 10 28 20 5 10 17 18 26 18
19 0 93 48 106 68 5 7 12 10 17 7 5 -3 11 -1 15 5 3 5 15 10 26 10 11 0 18 4
15 9 -7 10 18 34 27 25 8 -9 27 32 19 41 -4 5 -2 5 4 2 12 -7 134 107 134 124
0 5 6 9 13 9 8 0 19 12 25 26 7 14 17 22 22 19 6 -4 9 -3 8 2 -4 15 15 58 31
70 9 6 16 15 16 20 0 5 8 17 17 27 10 10 21 29 24 44 8 31 23 54 33 48 5 -4 9
14 14 66 1 9 4 15 8 13 13 -9 34 55 38 113 1 7 6 10 11 7 6 -3 10 1 10 9 0 9
4 16 8 16 4 0 7 25 7 56 -1 36 3 58 11 61 20 8 30 53 29 135 0 43 4 78 9 78 5
0 7 3 3 6 -3 4 0 19 9 35 8 16 12 29 8 29 -4 0 0 8 7 17 10 11 10 14 2 9 -16
-9 -17 6 -1 22 9 9 9 12 0 12 -7 0 -12 5 -12 11 0 5 4 8 8 5 10 -6 8 56 -1 72
-4 6 -3 13 3 17 5 3 10 11 10 16 0 6 -4 8 -8 5 -4 -2 -8 4 -9 14 -1 11 2 22 8
25 5 4 9 11 9 16 0 6 -4 7 -10 4 -5 -3 -10 -1 -10 4 0 6 5 11 10 11 6 0 10 5
10 11 0 5 -6 7 -12 3 -10 -6 -10 -4 0 7 14 16 16 33 2 24 -5 -3 -10 -1 -10 4
0 6 5 11 10 11 6 0 10 5 10 11 0 5 -6 7 -12 3 -10 -6 -10 -4 0 7 14 15 16 33
3 25 -9 -6 -9 44 1 59 4 6 3 17 -3 25 -11 19 -12 33 0 25 6 -3 6 7 1 26 -5 17
-8 34 -8 38 1 3 -4 17 -11 30 -11 20 -20 102 -22 194 0 9 -4 15 -9 12 -14 -9
-24 16 -26 68 -1 30 -8 55 -20 68 -10 11 -19 33 -19 49 0 16 -11 43 -23 60
-13 17 -20 35 -17 40 3 5 0 12 -6 15 -5 4 -8 13 -5 20 3 8 -4 17 -15 20 -10 4
-19 15 -19 27 0 11 -11 34 -26 50 -14 17 -23 37 -20 44 5 12 -10 19 -35 16 -3
-1 -5 10 -3 23 1 14 -2 25 -7 25 -6 0 -7 5 -4 10 3 6 -1 10 -10 10 -9 0 -13 5
-10 10 3 6 1 10 -6 10 -7 0 -10 3 -6 6 7 8 -17 34 -32 34 -6 0 -11 5 -11 11 0
14 -61 75 -72 72 -4 -2 -7 0 -6 5 2 12 -14 42 -21 38 -3 -2 -12 2 -19 10 -7 8
-9 14 -5 14 4 0 -3 6 -17 13 -14 8 -24 19 -23 25 3 11 -9 16 -29 13 -4 0 -9 8
-13 18 -3 10 -17 24 -30 31 -14 7 -23 15 -20 18 2 3 -12 14 -33 25 -20 11 -40
24 -44 30 -3 6 -14 12 -23 13 -10 1 -24 12 -32 23 -8 12 -18 19 -22 16 -5 -2
-21 6 -37 20 -15 13 -31 22 -35 20 -4 -3 -19 5 -35 17 -15 12 -36 24 -47 25
-11 2 -27 11 -36 21 -9 10 -26 19 -39 19 -12 1 -36 11 -52 23 -26 19 -45 24
-97 29 -7 0 -13 7 -13 14 0 8 -6 14 -12 15 -42 3 -78 12 -108 29 -19 11 -42
19 -50 19 -18 -2 -82 63 -74 75 2 5 -4 17 -16 29 -17 17 -26 43 -17 53 1 1
-10 15 -25 31 -19 21 -25 37 -23 58 3 17 0 26 -6 23 -5 -4 -12 1 -15 9 -3 9
-9 14 -13 12 -3 -2 -6 12 -7 31 -1 22 -8 41 -19 49 -9 7 -18 26 -20 42 -1 16
-11 41 -21 57 -17 27 -24 44 -26 73 -1 6 -5 12 -9 12 -9 0 -40 54 -39 67 0 5
-5 8 -12 8 -6 0 -15 13 -19 28 -10 36 -28 59 -42 50 -5 -3 -7 -1 -4 5 10 15
-3 42 -19 42 -8 0 -15 7 -15 15 -1 8 -2 19 -3 24 0 6 -11 19 -23 31 -13 11
-23 28 -23 36 0 8 -4 13 -9 10 -5 -3 -14 1 -21 9 -7 8 -9 15 -6 15 4 0 1 6 -6
14 -7 8 -16 12 -20 9 -5 -2 -8 1 -8 8 0 7 -12 28 -27 48 -16 20 -27 40 -25 44
1 5 -2 6 -7 3 -5 -3 -12 1 -15 10 -3 8 -11 12 -16 9 -6 -4 -10 -3 -9 2 4 21
-3 32 -21 38 -11 3 -20 13 -20 21 0 8 -4 14 -9 14 -6 0 -34 22 -63 50 -28 27
-54 47 -56 45 -2 -2 -15 7 -29 21 -14 14 -31 23 -38 20 -9 -3 -12 2 -10 15 2
11 0 17 -6 14 -5 -4 -9 -1 -9 4 0 6 -5 11 -11 11 -12 0 -40 26 -34 32 2 2 -7
5 -21 6 -32 2 -46 11 -39 22 3 5 -7 13 -22 16 -28 7 -56 28 -48 36 2 2 -8 5
-22 6 -15 1 -35 11 -45 22 -18 19 -30 23 -71 23 -10 0 -16 2 -13 4 9 10 -27
37 -48 38 -12 0 -27 4 -33 8 -7 5 -13 5 -13 1 0 -4 -8 1 -19 10 -10 9 -34 19
-52 21 -62 8 -74 12 -74 25 0 9 -21 14 -70 15 -80 3 -95 6 -112 21 -17 16
-533 15 -539 -1z"/>
<path d="M6315 8181 c-35 -6 -41 -23 -37 -106 2 -44 5 -251 8 -460 2 -209 5
-387 6 -395 4 -40 21 -43 253 -42 212 0 225 2 244 21 12 12 21 23 21 26 0 3 0
8 1 13 3 19 7 288 11 589 l3 333 -29 12 c-27 11 -432 19 -481 9z"/>
<path d="M7916 7822 c-12 -16 -14 -23 -5 -18 8 4 6 1 -3 -7 -10 -8 -18 -19
-18 -26 0 -6 -5 -11 -11 -11 -6 0 -9 -7 -5 -15 3 -8 1 -15 -4 -15 -6 0 -9 -6
-7 -12 1 -7 -5 -11 -13 -10 -8 2 -12 0 -7 -4 4 -4 -1 -16 -10 -27 -11 -12 -12
-17 -4 -12 20 12 2 -16 -21 -33 -10 -7 -18 -20 -18 -28 0 -8 -7 -14 -16 -14
-8 0 -12 -4 -9 -10 3 -5 1 -10 -5 -10 -6 0 -8 -5 -5 -10 3 -6 -1 -13 -10 -16
-9 -4 -14 -13 -11 -20 3 -8 -1 -14 -9 -14 -8 0 -15 -7 -15 -15 0 -8 -9 -19
-19 -25 -11 -5 -23 -19 -26 -30 -3 -11 -13 -20 -21 -20 -8 0 -14 -6 -14 -14 0
-8 -11 -24 -25 -37 -13 -13 -25 -34 -25 -47 0 -13 -4 -21 -9 -18 -5 3 -17 -6
-27 -21 -9 -15 -25 -36 -35 -47 -10 -10 -16 -23 -13 -28 3 -4 0 -8 -5 -8 -6 0
-10 -6 -9 -12 2 -7 -3 -12 -9 -10 -7 1 -14 -4 -15 -10 0 -7 -2 -18 -2 -24 -1
-6 -9 -19 -19 -28 -9 -10 -17 -22 -17 -27 0 -15 -2 -23 -11 -47 -8 -21 -5 -25
21 -35 16 -6 30 -15 30 -19 0 -4 18 -17 40 -28 23 -12 43 -27 46 -35 3 -7 12
-11 19 -9 7 3 16 -3 19 -13 3 -10 19 -24 36 -31 17 -8 28 -17 25 -22 -3 -4 11
-11 30 -14 20 -4 33 -11 30 -17 -4 -5 -1 -9 5 -9 6 0 8 -5 4 -12 -5 -7 -3 -8
5 -4 7 5 19 0 27 -10 9 -11 13 -13 9 -6 -3 6 -4 12 0 12 3 0 10 -10 15 -22 6
-15 9 -17 9 -7 1 9 11 24 23 35 12 10 18 13 13 5 -5 -10 -4 -12 3 -7 7 4 12
13 12 21 0 8 10 21 22 29 12 9 19 16 14 16 -4 0 2 9 15 21 13 11 17 17 9 13
-13 -7 -13 -5 -2 9 8 9 19 15 25 14 6 -1 12 4 13 11 1 6 2 17 3 23 0 5 5 8 9
5 5 -3 16 8 26 25 10 16 22 26 28 23 7 -4 8 -2 4 4 -4 7 -2 12 3 12 6 0 11 7
11 16 0 8 5 12 10 9 6 -3 10 -2 10 3 0 4 15 26 34 47 19 21 33 42 31 45 -2 4
7 17 21 29 14 12 22 27 18 33 -5 8 -2 9 9 5 12 -5 19 1 23 18 3 14 12 25 19
25 8 0 17 5 21 12 5 7 2 9 -7 4 -8 -4 -5 0 6 9 11 9 20 20 20 26 0 5 5 13 12
17 6 4 13 14 15 21 2 8 15 28 30 44 15 16 25 33 22 38 -3 5 -1 9 5 9 12 0 31
32 37 63 2 12 8 23 14 25 15 5 12 22 -4 22 -8 0 -18 5 -22 12 -5 7 -2 9 7 4 8
-4 -2 7 -21 24 -19 17 -33 37 -32 43 2 7 0 9 -4 4 -4 -4 -16 1 -27 10 -11 10
-17 12 -13 5 7 -11 4 -11 -12 -1 -12 7 -18 17 -15 23 3 5 1 6 -4 3 -6 -4 -24
6 -40 21 -28 26 -44 34 -70 35 -7 0 -10 3 -8 7 3 4 -5 16 -17 26 -12 11 -18
13 -14 6 7 -11 4 -12 -12 -3 -11 6 -22 17 -26 26 -3 8 -14 15 -25 15 -11 0
-27 10 -35 22 -9 12 -16 18 -16 13 0 -6 -4 -5 -8 1 -5 8 -13 3 -26 -14z"/>
<path d="M4560 6887 c0 -4 -4 -6 -9 -3 -5 3 -11 0 -13 -7 -3 -6 -4 -571 -4
-1255 1 -683 -1 -1242 -4 -1242 -3 0 -6 -12 -7 -26 0 -15 -7 -30 -13 -34 -7
-4 -14 -27 -16 -51 -6 -68 -9 -80 -24 -89 -8 -5 -15 -21 -18 -37 -4 -33 -20
-55 -35 -46 -5 3 -7 2 -4 -4 8 -13 -22 -55 -34 -47 -5 3 -8 2 -7 -3 2 -4 -10
-22 -25 -40 -21 -23 -35 -30 -52 -27 -16 3 -32 -4 -47 -18 -14 -14 -35 -23
-53 -23 -37 0 -85 -14 -85 -25 0 -7 -76 -26 -91 -22 -4 1 -15 -8 -24 -18 -10
-11 -26 -20 -37 -20 -10 0 -18 -5 -18 -11 0 -5 -5 -7 -12 -3 -6 4 -8 3 -5 -3
4 -6 0 -16 -8 -23 -8 -7 -15 -17 -15 -23 0 -5 -8 -15 -17 -22 -24 -18 -22
-105 3 -142 10 -15 19 -40 20 -54 1 -15 11 -36 23 -48 11 -11 21 -30 21 -40 0
-10 6 -21 14 -24 8 -3 20 -16 26 -28 9 -16 9 -20 0 -14 -9 6 -9 2 -1 -14 7
-11 16 -21 22 -21 14 0 39 -26 32 -33 -9 -10 58 -23 101 -20 82 4 104 9 120
26 9 9 23 14 31 11 8 -4 15 -1 15 6 0 6 4 9 9 5 5 -3 16 4 24 15 8 11 25 23
38 25 13 3 31 13 39 22 9 10 22 19 29 21 8 2 25 12 39 23 14 10 31 19 38 19 8
0 14 4 14 9 0 5 20 21 45 35 25 15 45 32 45 37 0 6 7 9 15 5 8 -3 15 -1 15 4
0 6 13 22 30 36 16 15 27 32 23 38 -3 6 -3 8 2 4 9 -8 55 36 55 53 0 5 9 18
20 29 11 11 20 27 20 35 0 8 6 12 13 9 8 -3 14 1 15 8 2 32 12 59 30 79 11 11
19 32 17 45 -1 16 4 28 16 35 10 5 18 13 18 17 -1 4 0 10 1 15 1 4 4 21 5 37
1 17 4 32 5 35 1 3 3 11 4 18 1 6 7 11 14 10 7 -2 9 4 5 14 -4 9 -2 14 3 10 6
-3 10 12 9 39 0 24 2 44 5 44 3 0 5 24 5 53 0 28 5 58 12 65 7 7 9 20 6 29 -4
9 -2 14 3 11 6 -4 9 476 9 1253 0 1362 3 1276 -50 1280 -85 6 -395 2 -395 -4z"/>
<path d="M9130 6825 c-7 -8 -16 -12 -21 -9 -5 3 -9 0 -9 -6 0 -6 -4 -9 -9 -5
-5 3 -12 1 -16 -5 -4 -6 -11 -7 -17 -4 -6 4 -9 3 -6 -2 3 -5 0 -15 -8 -22 -8
-7 -14 -10 -14 -6 0 3 -7 1 -15 -6 -8 -7 -15 -9 -15 -6 0 4 -10 -2 -22 -14
-20 -19 -33 -24 -50 -21 -5 0 -8 -5 -8 -13 0 -12 -11 -21 -32 -25 -5 0 -19
-11 -32 -22 -13 -12 -26 -19 -29 -18 -9 7 -47 -34 -40 -44 3 -5 0 -7 -8 -5 -8
3 -27 -6 -42 -19 -16 -13 -33 -21 -38 -17 -5 3 -9 2 -9 -3 0 -4 -10 -19 -21
-33 -11 -14 -18 -19 -14 -13 4 8 1 11 -9 7 -8 -3 -18 -14 -21 -25 -4 -11 -11
-17 -16 -14 -5 4 -9 1 -9 -5 0 -6 -4 -9 -9 -5 -6 3 -13 -1 -18 -8 -4 -8 -21
-22 -38 -33 -16 -10 -45 -34 -62 -53 -18 -19 -33 -31 -33 -28 0 3 -20 -14 -45
-40 -25 -25 -45 -41 -45 -37 -1 14 -21 -24 -25 -46 -3 -13 0 -18 7 -14 7 5 9
2 5 -9 -3 -9 -1 -19 5 -23 7 -4 8 -3 4 4 -4 7 -5 12 -2 12 2 0 15 -18 27 -40
13 -22 27 -40 31 -40 5 0 7 -4 4 -8 -3 -5 3 -18 14 -29 10 -12 16 -24 13 -27
-4 -3 1 -6 11 -6 9 0 15 -4 12 -9 -3 -4 6 -19 19 -31 14 -13 25 -31 25 -41 0
-10 9 -24 20 -32 11 -8 17 -17 13 -20 -3 -4 -1 -7 5 -7 7 0 11 -3 11 -7 -4
-23 4 -31 30 -35 17 -2 27 0 24 4 -3 5 1 8 8 7 8 -1 27 3 42 9 16 7 35 12 43
12 8 0 13 4 10 9 -7 10 16 21 44 21 10 0 21 7 24 16 3 8 10 13 15 10 5 -3 14
1 21 9 7 8 16 13 20 10 5 -3 11 3 14 13 4 10 13 19 21 20 8 1 22 3 30 4 8 1
13 3 10 6 -8 8 22 31 48 38 15 3 25 11 24 18 -1 6 4 10 11 8 6 -1 12 2 12 8 0
6 3 9 8 8 4 -2 16 6 28 17 30 28 58 50 67 52 13 3 37 31 37 42 0 5 9 8 20 6
11 -2 18 -1 16 4 -3 4 4 14 16 22 11 8 31 24 44 37 13 12 26 22 29 22 12 0 34
28 28 34 -4 3 1 6 10 6 9 0 22 9 29 20 7 11 17 20 21 20 17 0 34 26 32 50 -2
35 -15 70 -25 70 -4 0 -13 14 -19 30 -5 17 -14 30 -19 30 -10 0 -27 47 -23 63
1 5 -3 6 -8 2 -10 -5 -37 33 -33 47 1 4 -9 19 -23 34 -14 15 -23 29 -21 31 2
2 -7 16 -20 30 -13 14 -22 28 -21 32 1 3 -5 16 -14 29 -14 20 -18 21 -29 7z"/>
<path d="M9396 5303 c-1 -2 -90 -5 -197 -8 -107 -3 -214 -7 -239 -10 -25 -3
-72 -7 -105 -10 -33 -2 -60 -5 -60 -6 0 0 -16 -2 -35 -4 -19 -1 -36 -7 -38
-14 -2 -6 -7 -9 -10 -7 -4 2 -7 -102 -7 -232 1 -175 4 -237 13 -240 7 -2 10
-7 8 -10 -4 -7 207 -5 464 4 85 3 187 7 227 7 39 1 69 5 68 8 -2 3 38 5 90 4
52 0 95 3 95 7 0 4 9 8 20 8 19 0 20 7 20 238 0 288 16 265 -178 266 -74 1
-135 0 -136 -1z"/>
<path d="M8620 4167 c-12 -12 -20 -15 -16 -7 4 8 0 6 -8 -4 -9 -11 -16 -24
-16 -29 0 -5 -7 -7 -15 -3 -8 3 -14 2 -14 -2 3 -19 -2 -33 -10 -28 -5 3 -11
-4 -14 -15 -4 -13 -10 -18 -18 -13 -8 4 -10 3 -5 -4 4 -7 2 -12 -4 -12 -6 0
-8 -4 -5 -10 3 -5 2 -10 -3 -10 -5 0 -22 -20 -37 -45 -16 -24 -32 -42 -35 -40
-4 3 -6 -6 -5 -19 2 -14 -6 -34 -18 -47 -12 -13 -21 -28 -19 -32 1 -5 -3 -16
-10 -25 -11 -13 -11 -14 0 -8 11 7 11 4 1 -12 -7 -12 -16 -19 -19 -17 -4 2 -7
-2 -7 -10 0 -8 7 -17 15 -20 8 -3 11 -12 8 -20 -3 -10 1 -15 12 -15 10 0 34
-11 53 -25 20 -13 39 -21 43 -18 3 4 6 1 6 -6 0 -7 5 -9 10 -6 6 3 10 -2 10
-11 0 -10 3 -15 6 -11 3 3 14 -2 25 -11 11 -9 25 -17 32 -17 7 -1 11 -6 10
-13 -3 -11 9 -16 29 -13 4 0 16 -10 26 -24 11 -13 22 -22 24 -19 3 2 16 -7 29
-21 13 -13 29 -25 36 -25 7 0 23 -11 37 -25 14 -14 30 -25 36 -25 6 0 8 -4 5
-10 -3 -5 -2 -10 4 -10 6 0 22 -11 36 -25 14 -14 25 -23 25 -20 0 4 27 -21 60
-56 33 -34 60 -66 60 -71 0 -5 5 -6 10 -3 6 3 10 -3 10 -14 0 -12 3 -21 8 -22
4 0 15 -2 24 -4 10 -2 20 1 24 6 3 5 10 6 16 3 6 -4 8 -2 5 3 -7 10 20 28 36
25 4 -1 7 3 7 10 0 6 3 9 6 5 4 -3 15 4 26 16 11 12 17 15 13 7 -4 -8 5 -3 18
12 14 15 27 24 30 22 3 -3 10 4 17 15 6 12 16 18 22 15 6 -4 8 -3 5 3 -4 5 5
20 19 32 13 12 29 33 34 47 6 14 14 23 19 20 5 -4 8 2 6 11 -1 10 11 33 28 50
17 18 28 36 24 39 -8 8 12 46 21 40 11 -7 8 58 -3 70 -6 6 -20 14 -32 18 -12
4 -24 13 -27 21 -3 8 -15 15 -26 15 -12 0 -18 5 -15 10 3 6 -1 10 -10 10 -8 0
-18 7 -21 15 -4 8 -10 13 -14 10 -5 -3 -18 7 -30 22 -12 16 -18 21 -14 13 7
-12 5 -13 -8 -3 -8 7 -17 10 -21 7 -3 -3 -8 4 -12 15 -4 12 -15 21 -26 21 -11
0 -18 4 -14 9 3 5 -4 12 -15 16 -12 4 -17 11 -14 18 4 7 4 9 -1 5 -4 -4 -14
-3 -22 3 -7 6 -13 9 -13 5 0 -6 -18 8 -68 54 -28 26 -34 30 -52 30 -5 0 -10 7
-10 15 0 9 -6 12 -15 9 -8 -4 -15 -1 -15 5 0 6 -6 11 -14 11 -8 0 -17 7 -20
16 -4 9 -9 14 -12 11 -8 -8 -44 25 -38 35 3 5 2 7 -3 6 -16 -4 -51 13 -57 28
-3 8 -10 12 -16 9 -5 -3 -10 -1 -10 4 0 6 -6 11 -14 11 -8 0 -18 9 -21 20 -4
11 -11 18 -16 15 -5 -3 -17 -1 -27 4 -14 8 -24 5 -42 -12z"/>
<path d="M7846 3313 c-3 -4 -16 -8 -28 -10 -12 -2 -27 -8 -33 -13 -7 -5 -16
-6 -20 -2 -5 4 -5 1 -1 -6 5 -8 -3 -14 -26 -19 -18 -4 -37 -6 -41 -5 -5 1 -6
-2 -3 -7 4 -5 -3 -12 -14 -16 -11 -3 -20 -10 -20 -14 0 -5 -13 -7 -30 -6 -17
1 -27 -2 -24 -7 3 -5 -3 -12 -15 -15 -12 -3 -21 -9 -21 -13 0 -5 -12 -7 -26
-5 -19 2 -28 -3 -32 -17 -3 -11 -10 -17 -19 -14 -8 3 -11 1 -8 -4 3 -6 -1 -10
-9 -10 -21 0 -30 -18 -16 -35 6 -8 9 -19 5 -25 -3 -5 0 -10 7 -10 8 0 20 -20
27 -44 7 -25 17 -46 22 -48 4 -2 10 -14 13 -28 2 -14 5 -26 7 -27 2 -4 6 -20
8 -34 0 -5 6 -7 11 -4 6 3 10 1 10 -4 0 -21 2 -26 13 -40 10 -12 9 -13 -1 -7
-11 7 -11 4 0 -13 7 -12 16 -21 19 -21 7 0 19 -33 23 -61 1 -10 10 -24 19 -34
9 -9 18 -21 18 -26 5 -37 20 -69 30 -64 8 5 14 -16 10 -37 0 -5 4 -8 10 -8 5
0 7 -4 4 -10 -3 -5 1 -10 9 -10 9 0 16 -8 16 -19 0 -11 5 -23 10 -26 6 -4 8
-11 5 -16 -4 -5 2 -9 11 -9 10 0 15 -3 11 -6 -3 -4 1 -13 9 -21 8 -8 12 -18 9
-23 -3 -5 4 -11 15 -15 11 -4 18 -10 15 -14 -2 -5 7 -21 20 -35 14 -15 25 -29
25 -33 0 -16 69 -68 92 -68 15 -1 24 3 21 9 -4 5 1 7 10 3 10 -4 14 -2 11 7
-3 7 1 13 8 14 35 2 64 13 76 29 7 10 15 17 17 16 3 -2 6 -3 8 -2 1 0 12 2 25
5 13 2 30 11 38 19 9 8 18 15 22 16 29 3 47 10 65 26 14 13 18 14 13 3 -4 -8
-1 -7 8 4 8 10 19 15 25 11 6 -3 11 -1 11 5 0 6 4 9 9 6 8 -5 30 15 45 41 3 6
-2 19 -11 29 -9 9 -18 22 -19 29 -4 28 -17 60 -30 73 -8 7 -12 17 -9 22 3 5 1
11 -5 15 -6 4 -8 11 -5 16 4 5 1 9 -6 9 -7 0 -9 3 -6 7 4 3 0 11 -8 17 -8 6
-16 23 -19 39 -3 15 -12 34 -20 43 -9 8 -19 27 -23 42 -3 15 -15 33 -25 40
-10 7 -18 23 -18 35 0 13 -9 30 -20 40 -12 10 -18 22 -15 27 3 6 1 10 -4 10
-6 0 -10 3 -10 8 3 19 -2 33 -10 28 -11 -7 -32 49 -23 60 4 4 2 4 -5 0 -12 -6
-40 31 -35 47 1 4 -2 7 -8 7 -6 0 -10 7 -10 16 0 8 -4 13 -8 10 -4 -2 -14 9
-21 25 -7 16 -17 27 -22 23 -8 -4 -11 8 -8 32 0 3 -12 16 -28 30 -15 13 -24
24 -20 24 4 0 2 6 -5 14 -7 8 -16 12 -19 10 -4 -2 -12 3 -19 11 -14 16 -23 19
-34 8z"/>
<path d="M6435 2932 c-2 -2 -25 -4 -51 -6 l-49 -2 0 -496 c0 -273 3 -494 8
-491 4 2 7 0 7 -5 0 -10 307 -8 435 2 33 3 63 5 67 6 15 0 31 46 29 85 -1 22
-4 117 -6 210 -4 181 -12 328 -20 385 -3 19 -7 90 -9 156 -2 67 -8 129 -14
139 -9 17 -27 19 -202 19 -105 1 -193 0 -195 -2z"/>
</g>
</svg>
